<svg xmlns="http://www.w3.org/2000/svg" width="128" height="128" viewBox="0 0 128 128">
  <g id="link-shortener" transform="translate(2964 -580)">
    <circle id="Ellipse_68" data-name="Ellipse 68" cx="64" cy="64" r="64" transform="translate(-2964 580)" fill="#990080"/>
    <path id="Pfad_80" data-name="Pfad 80" d="M293.644,416.241l.046-46.363a1.439,1.439,0,0,1,1.437-1.437,8.627,8.627,0,0,1,8.627,8.625v0l-.044,39.162,10.963-.01a17.235,17.235,0,1,1,0,10.063L303.7,426.3l-.012,10.976a17.25,17.25,0,1,1-10.063,0l.01-10.963-39.164.044a8.627,8.627,0,0,1-8.627-8.626,1.438,1.438,0,0,1,1.437-1.437Zm31.433,11.1a8.625,8.625,0,1,0,0-12.2A8.633,8.633,0,0,0,325.077,427.344ZM292.55,459.871a8.625,8.625,0,1,0,0-12.2A8.633,8.633,0,0,0,292.55,459.871Z" transform="translate(-3196.843 224.559)" fill="#fff"/>
  </g>
</svg>
