<svg xmlns="http://www.w3.org/2000/svg" width="128" height="128" viewBox="0 0 128 128">
  <g id="link-shortener-2" transform="translate(2964 -215)">
    <circle id="Ellipse_1" data-name="Ellipse 1" cx="64" cy="64" r="64" transform="translate(-2964 215)" fill="#990080"/>
    <g id="Gruppe_19" data-name="Gruppe 19" transform="translate(3 1.201)">
      <path id="Pfad_79" data-name="Pfad 79" d="M35.44,31.815l28.024-28a.652.652,0,0,0,.166-.4.652.652,0,0,0-.166-.4,4.543,4.543,0,0,0-6.427,0L31.824,28.2l-6.908-6.9A13.643,13.643,0,1,0,21.3,24.912l6.907,6.9-6.907,6.9a13.623,13.623,0,1,0,3.616,3.615l6.908-6.9L57.037,60.622a4.543,4.543,0,0,0,6.427,0,.568.568,0,0,0,0-.8Zm-21.8-9.09a9.09,9.09,0,1,1,9.09-9.09A9.1,9.1,0,0,1,13.635,22.725Zm0,36.36A9.09,9.09,0,1,1,22.725,50,9.1,9.1,0,0,1,13.635,59.085Z" transform="translate(-2935 330) rotate(-90)" fill="#fff" stroke="#fff" stroke-width="0.5"/>
      <path id="Pfad_78" data-name="Pfad 78" d="M36.581,13.26A13.179,13.179,0,0,0,35.912,9.1a1.128,1.128,0,0,0-1.075-.768h-.585a4.9,4.9,0,0,0-3.027,1.044,1.139,1.139,0,0,0-.386,1.265,9.5,9.5,0,0,1,.441,2.613,7.964,7.964,0,0,1-7.954,7.954H13.257A7.951,7.951,0,0,1,5.3,13.265v-.005A7.952,7.952,0,0,1,13.251,5.3H19.4a1.127,1.127,0,0,0,.964-.535,19.776,19.776,0,0,1,2.216-2.85A1.136,1.136,0,0,0,21.752,0c-1.548,0-4.107,0-8.5,0A13.248,13.248,0,0,0,0,13.243v.018A13.249,13.249,0,0,0,13.241,26.518h.016c11,0,10.51.027,11.446-.073A13.274,13.274,0,0,0,36.581,13.26Zm20.988,0A13.249,13.249,0,0,0,44.329,0h-.016c-11,0-10.51-.027-11.446.073A13.258,13.258,0,0,0,21.656,17.417a1.131,1.131,0,0,0,1.073.769h.585a4.892,4.892,0,0,0,3.027-1.044,1.138,1.138,0,0,0,.386-1.264,9.479,9.479,0,0,1-.441-2.614,7.964,7.964,0,0,1,7.953-7.954H44.31a7.952,7.952,0,0,1,7.954,7.949v.005a7.953,7.953,0,0,1-7.949,7.954H44.31l-6.135,0a1.128,1.128,0,0,0-.964.535A19.774,19.774,0,0,1,35,24.6a1.136,1.136,0,0,0,.823,1.92c1.549,0,4.106,0,8.495,0C51.454,26.395,57.209,20.4,57.57,13.26Z" transform="translate(-2916.333 281.369) rotate(-90)" fill="#fff"/>
    </g>
  </g>
</svg>
