<svg xmlns="http://www.w3.org/2000/svg" xmlns:xlink="http://www.w3.org/1999/xlink" width="16" height="16" viewBox="0 0 16 16">
  <defs>
    <clipPath id="clip-link-shortener-icon-mask">
      <rect width="16" height="16"/>
    </clipPath>
  </defs>
  <g id="link-shortener-icon-mask" clip-path="url(#clip-link-shortener-icon-mask)">
    <path d="M253.3,375.9l.007-7.231a.224.224,0,0,1,.224-.224,1.346,1.346,0,0,1,1.346,1.345h0l-.007,6.108,1.71,0a2.688,2.688,0,1,1,0,1.57l-1.712,0,0,1.712a2.691,2.691,0,1,1-1.57,0l0-1.71-6.109.007a1.346,1.346,0,0,1-1.346-1.345.224.224,0,0,1,.224-.224Zm4.9,1.732a1.345,1.345,0,1,0,0-1.9A1.347,1.347,0,0,0,258.2,377.628Zm-5.073,5.073a1.345,1.345,0,1,0,0-1.9A1.347,1.347,0,0,0,253.128,382.7Z" transform="translate(-245.843 -368.441)" fill="currentColor"/>
  </g>
</svg>
